<?xml version="1.0" encoding="UTF-8"?>
<svg xmlns="http://www.w3.org/2000/svg" xmlns:xlink="http://www.w3.org/1999/xlink" version="1.1" width="512" height="512" x="0" y="0" viewBox="0 0 512 512" style="enable-background:new 0 0 512 512" xml:space="preserve" class="">
  <g>
    <g fill-rule="evenodd" clip-rule="evenodd">
      <path fill="#0080d1" d="M473.58 42.921c13.031 19.047 14.844 44.645 2.535 65.966a61.813 61.813 0 0 1-13.981 16.627c-6.501 5.414-9.913 12.696-9.913 21.157v168.088c0 17.181-14.059 31.243-31.243 31.243-17.183 0-31.242-14.059-31.242-31.243v-170.74c0-8.032-3.055-14.944-8.992-20.353-21.044-19.171-26.691-51.032-11.874-76.697 10.705-18.541 29.552-29.451 49.417-30.821 1.892-.13 3.581.732 4.585 2.34 1.005 1.609 1.037 3.506.089 5.148l-19.384 33.575c-.839 1.453-.912 3.076-.208 4.599l12.645 27.339 32.581-2.953z" opacity="1" data-original="#cad0d7" class=""/>
      <path fill="#0080d1" d="M488.611 103.088c9.459-19.71 11.384-46.462-3.516-66.21-1.041-1.38-2.573-2.084-4.298-1.979-1.725.106-3.16.994-4.024 2.49l-28.179 48.807 33.009 19.058c1.25.722 2.598.873 3.977.447s2.406-1.312 3.031-2.613z" opacity="1" data-original="#a9b0bb" class=""/>
    </g>
    <g fill-rule="evenodd" clip-rule="evenodd">
      <path fill="#0080d1" d="M278.249 357.476V38.252c0-12.238-10.013-22.251-22.251-22.251s-22.251 10.013-22.251 22.251v319.224c0 12.238 10.013 22.251 22.251 22.251s22.251-10.013 22.251-22.251z" opacity="1" data-original="#efc7a4" class=""/>
      <path fill="#e11a2e" d="M219.441 311.398h73.114c2.754 0 5 2.246 5 5v53.934c0 2.754-2.246 5-5 5h-73.114a5.01 5.01 0 0 1-5-5v-53.934c0-2.755 2.246-5 5-5z" opacity="1" data-original="#eb5463" class=""/>
      <path fill="#e11a2e" d="M255.998 337.195c63.128 0 114.303 51.175 114.303 114.302 0 3.679-.181 7.316-.521 10.906H142.216c-.34-3.59-.521-7.227-.521-10.906 0-63.127 51.175-114.302 114.303-114.302z" opacity="1" data-original="#f76c82" class=""/>
      <path fill="#e11a2e" d="M140.961 496h230.073c12.238 0 22.251-10.013 22.251-22.251s-10.013-22.251-22.251-22.251H140.961c-12.238 0-22.251 10.013-22.251 22.251 0 12.239 10.012 22.251 22.251 22.251z" opacity="1" data-original="#eb5463" class=""/>
    </g>
    <g fill-rule="evenodd" clip-rule="evenodd">
      <path fill="#0080d1" d="M157.678 130.621V89.173c0-8.114-6.618-14.731-14.731-14.731H107.14c-8.114 0-14.731 6.618-14.731 14.731v16.207z" opacity="1" data-original="#a9b0bb" class=""/>
      <path fill="#0080d1" d="M51.157 16.003h89.333c9.467 0 17.187 7.722 17.187 17.187v6.386c0 4.057-3.309 7.365-7.365 7.365H75.221c-5.696 0-10.312 4.617-10.312 10.312v107.1l11.415 10.57-11.415 16.574v14.884c0 8.506-6.961 15.469-15.469 15.469s-15.469-6.961-15.469-15.469V33.19c-.001-9.466 7.72-17.187 17.186-17.187z" opacity="1" data-original="#a9b0bb" class=""/>
      <path fill="#e11a2e" d="M157.678 105.38v212.851c0 15.272-12.496 27.768-27.768 27.768s-27.768-12.495-27.768-27.768V206.203l-37.233-14.011v-45.026H26.548v-34.42c0-4.057 3.309-7.366 7.366-7.366z" opacity="1" data-original="#f76c82" class=""/>
      <path fill="#636c77" d="M23.363 170.147h53.52c4.057 0 7.366-3.309 7.366-7.365v-16.208c0-4.057-3.308-7.366-7.366-7.366h-53.52c-4.057 0-7.366 3.309-7.366 7.366v16.208c.001 4.057 3.309 7.365 7.366 7.365z" opacity="1" data-original="#636c77" class=""/>
    </g>
    <path fill-rule="evenodd" d="M138.739 317.281c0-4.879-3.961-8.84-8.84-8.84s-8.84 3.961-8.84 8.84c0 4.888 3.961 8.85 8.84 8.85s8.84-3.961 8.84-8.85zm-8.84 21.718c-11.451 0-20.772-9.32-20.772-20.767V206.2a6.998 6.998 0 0 0-4.526-6.549l-32.703-12.299v-10.2h12.341a7.003 7.003 0 0 0 7.001-7.001v-30.939a6.994 6.994 0 0 0-7.001-7.001h-50.7V112.38h117.132v205.851c0 11.447-9.321 20.768-20.772 20.768zm-71.998-132.62v-29.226H40.958v29.226c0 4.672 3.801 8.474 8.473 8.474 4.668-.001 8.47-3.802 8.47-8.474zM22.99 163.151h54.247v-16.942H22.99zm17.968-64.772H57.9v-41.13c0-9.537 7.767-17.309 17.309-17.309h75.461v-6.751c0-5.618-4.573-10.191-10.191-10.191h-89.33c-5.622 0-10.191 4.573-10.191 10.191zm58.439 0V81.442h51.273V98.38H99.397zm30.502 254.622c-19.172 0-34.769-15.601-34.769-34.769V211.051l-23.233-8.737v4.065c0 12.393-10.078 22.475-22.466 22.475-12.392 0-22.475-10.083-22.475-22.475v-29.226H15.99a7.003 7.003 0 0 1-7.001-7.001v-30.939a6.994 6.994 0 0 1 7.001-7.001h3.548V105.38a7 7 0 0 1 7.001-7.001h.419v-65.19c0-13.338 10.854-24.188 24.192-24.188h89.331c13.338 0 24.188 10.85 24.188 24.188v13.752a7.003 7.003 0 0 1-7.001 7.001H75.209a3.313 3.313 0 0 0-3.312 3.307v41.13H85.4V74.441c0-1.849.739-3.628 2.047-4.95a7.017 7.017 0 0 1 4.949-2.051h65.27c3.863 0 7.001 3.143 7.001 7.001v243.791c0 19.167-15.596 34.769-34.768 34.769zM386.28 473.75c0-8.408-6.85-15.249-15.263-15.249H140.95c-8.412 0-15.253 6.841-15.253 15.249 0 8.412 6.841 15.253 15.253 15.253h230.067c8.412 0 15.263-6.841 15.263-15.253zM148.92 444.5h214.136c-3.618-55.917-50.257-100.298-107.068-100.298-56.82 0-103.45 44.381-107.068 100.298zm72.506-109.279c10.962-3.26 22.565-5.02 34.562-5.02s23.599 1.759 34.548 5.02v-16.82h-69.109v16.82zm19.314-30.822h30.497V38.251c0-8.412-6.836-15.253-15.248-15.253-8.408 0-15.248 6.841-15.248 15.253v266.148zM400.276 473.75c0 16.128-13.127 29.25-29.26 29.25H140.95c-16.133 0-29.25-13.122-29.25-29.25 0-14.039 9.937-25.787 23.148-28.61 2.428-46.898 31.64-86.828 72.582-104.791V311.4a7.002 7.002 0 0 1 6.996-7.001h12.312V38.251c0-16.128 13.122-29.25 29.25-29.25 16.133 0 29.25 13.122 29.25 29.25v266.148h12.298a6.997 6.997 0 0 1 7.001 7.001v28.949c40.951 17.963 70.149 57.893 72.581 104.791 13.212 2.823 23.158 14.571 23.158 28.61zM426.2 168.848c0-2.879-2.352-5.227-5.232-5.227-2.889 0-5.241 2.348-5.241 5.227v99.272a5.238 5.238 0 0 0 5.241 5.232 5.236 5.236 0 0 0 5.232-5.232zm13.997 0v99.272c0 10.609-8.629 19.233-19.229 19.233-10.61 0-19.238-8.624-19.238-19.233v-99.272c0-10.595 8.629-19.229 19.238-19.229 10.6.001 19.229 8.634 19.229 19.229zm41.064-125.247-23.115 40.043 25.053 14.458c7.312-16.5 8.949-37.893-1.938-54.501zM469.47 106.34a55.145 55.145 0 0 1-2.691 4.041l-28.149-16.25 8.379-.762zm-24.262 40.33c0-1.628.122-3.227.32-4.79l-73.537-42.461c2.997 7.114 7.509 13.663 13.456 19.073 7.382 6.719 11.282 15.55 11.282 25.529V314.76c0 13.371 10.868 24.239 24.239 24.239s24.239-10.868 24.239-24.239V146.67zm-77.489-65.877 82.579 47.669c1.75-2.781 3.952-5.34 6.563-7.641l-44.362-25.613a6.98 6.98 0 0 1-2.851-3.115L395.92 62.401a6.974 6.974 0 0 1 .292-6.441l18.707-32.407c-16.519 2.338-31.49 12.176-40 26.916-5.431 9.41-7.751 19.964-7.2 30.324zm124.429 30.557a6.987 6.987 0 0 1-4.249 3.261c-.593.16-1.2.24-1.811.24a7.074 7.074 0 0 1-3.501-.932l-.997-.579c-4.004 6.69-9.033 12.59-14.99 17.549-4.902 4.093-7.391 9.4-7.391 15.78v168.09c0 21.092-17.159 38.241-38.241 38.241-21.087 0-38.241-17.149-38.241-38.241V144.021c0-6.097-2.197-11.07-6.709-15.178-23.741-21.623-29.302-57.531-13.221-85.374C375.98 20.641 401.49 7.18 427.79 9.199a7.045 7.045 0 0 1 5.66 3.721 7.004 7.004 0 0 1-.132 6.761l-23.171 40.128 10.143 21.925 24.047-2.183 29.862-51.711a6.96 6.96 0 0 1 5.152-3.439 6.972 6.972 0 0 1 5.857 1.99c24.39 24.389 20.702 61.139 6.94 84.959zm-62.339 202.779c0 4.879-3.961 8.84-8.84 8.84-4.888 0-8.84-3.961-8.84-8.84s3.952-8.84 8.84-8.84c4.878 0 8.84 3.961 8.84 8.84z" clip-rule="evenodd" fill="#000000" opacity="1" data-original="#000000" class=""/>
  </g>
</svg>
