<svg enable-background="new 0 0 64 64" height="512" viewBox="0 0 64 64" width="512" xmlns="http://www.w3.org/2000/svg"><g id="Layer_1"><g><path d="m47.58 3.92h-31.16c-6.9 0-12.5 5.6-12.5 12.5v31.16c0 6.9 5.6 12.5 12.5 12.5h31.16c6.9 0 12.5-5.6 12.5-12.5v-31.16c0-6.9-5.6-12.5-12.5-12.5zm11.5 43.66c0 6.34-5.16 11.5-11.5 11.5h-31.16c-6.34 0-11.5-5.16-11.5-11.5v-31.16c0-6.34 5.16-11.5 11.5-11.5h31.16c6.34 0 11.5 5.16 11.5 11.5z"/></g><g><path d="m38.2 15.94h-6.58c-.58 0-1.11.34-1.36.86-.74 1.59-1.79 2.93-3.1 4.01-1.35 1.1-3.31 2.07-5.82 2.88-.63.2-1.04.77-1.04 1.43v6.52c0 .47.22.92.6 1.2s.89.37 1.33.23c1.91-.58 3.53-1.2 4.82-1.85.53-.26 1.06-.56 1.61-.89v16.23c0 .83.67 1.5 1.5 1.5h8.04c.83 0 1.5-.67 1.5-1.5v-29.12c0-.83-.67-1.5-1.5-1.5zm.5 30.62c0 .28-.22.5-.5.5h-8.04c-.28 0-.5-.22-.5-.5v-17.14c0-.19-.1-.36-.27-.45-.07-.04-.15-.05-.23-.05-.1 0-.2.02-.28.08-.77.51-1.54.96-2.28 1.33-1.24.62-2.81 1.22-4.66 1.79-.15.04-.32.01-.44-.08-.13-.09-.2-.24-.2-.4v-6.52c0-.22.14-.41.34-.48 2.64-.85 4.71-1.88 6.15-3.06 1.43-1.17 2.57-2.63 3.38-4.35.08-.18.26-.29.45-.29h6.58c.28 0 .5.22.5.5z"/></g></g></svg>