<?xml version="1.0" encoding="UTF-8"?>
<svg xmlns="http://www.w3.org/2000/svg" xmlns:xlink="http://www.w3.org/1999/xlink" version="1.1" width="512" height="512" x="0" y="0" viewBox="0 0 511.245 511.245" style="enable-background:new 0 0 512 512" xml:space="preserve" class="">
  <g>
    <path fill="#e11a2e" d="M350.221 9.492c-75.89 0-137.62 61.73-137.62 137.62v175.03l15.856 23.181h59.899l10.985-23.181v-175.03c0-28.05 22.83-50.88 50.88-50.88s50.88 22.83 50.88 50.88v152.74h86.74v-152.74c0-75.889-61.73-137.62-137.62-137.62zM24.101 217.393v104.75l10.975 25.871s62.941.449 64.29 0c1.349-.45 11.485-25.871 11.485-25.871v-104.75z" opacity="1" data-original="#e4e1e5" class=""/>
    <path fill="#e11a2e" d="M430.584 233.253v-85.306c0-27.28-21.145-50.334-48.393-51.654a50.733 50.733 0 0 0-17.228 2.126c20.886 6.338 36.139 25.769 36.139 48.694v152.74H487.842v-45h-35.657c-11.93 0-21.601-9.671-21.601-21.6z" opacity="1" data-original="#d6d1d6" class=""/>
    <path fill="#777577" d="M491.794 274.853h-94.645c-6.6 0-11.951 5.351-11.951 11.951v28.948c0 6.6 5.351 11.951 11.951 11.951h94.645c6.6 0 11.951-5.351 11.951-11.951v-28.948c0-6.601-5.351-11.951-11.951-11.951z" opacity="1" data-original="#a59ca6" class=""/>
    <path fill="#e11a2e" d="M110.851 217.393h-86.75v104.75l10.975 25.871s4.953.035 12.109.076v-77.956c0-7.59 6.153-13.742 13.742-13.742h49.924z" opacity="1" data-original="#d6d1d6" class=""/>
    <path fill="#777577" d="M114.096 183.738H19.451c-6.6 0-11.951 5.351-11.951 11.951v28.753c0 6.6 5.351 11.951 11.951 11.951h94.645c6.6 0 11.951-5.351 11.951-11.951v-28.753c0-6.6-5.351-11.951-11.951-11.951z" opacity="1" data-original="#a59ca6" class=""/>
    <path fill="#00a3da" d="M299.341 322.143v41.99c0 75.89-61.73 137.62-137.62 137.62-75.88 0-137.62-61.73-137.62-137.62v-41.99h86.75v41.99c0 28.05 22.82 50.88 50.87 50.88s50.88-22.83 50.88-50.88v-41.99z" opacity="1" data-original="#cfeffc" class=""/>
    <path fill="#00a3da" d="M184.805 490.393c-75.88 0-137.62-61.73-137.62-137.62v-30.631H24.101v41.99c0 75.89 61.74 137.62 137.62 137.62 26.322 0 50.936-7.431 71.866-20.298-15.17 5.77-31.611 8.939-48.782 8.939z" opacity="1" data-original="#a9e4f9" class=""/>
    <path d="M393.598 147.112v36.627c0 4.143 3.358 7.5 7.5 7.5s7.5-3.357 7.5-7.5v-36.627c0-32.188-26.188-58.375-58.376-58.375s-58.376 26.187-58.376 58.375v167.535h-71.747v-29.351c0-4.143-3.358-7.5-7.5-7.5s-7.5 3.357-7.5 7.5v78.837c0 23.917-19.458 43.375-43.376 43.375s-43.376-19.458-43.376-43.375V243.41c8.685-1.946 15.2-9.705 15.2-18.968v-28.753c0-10.726-8.726-19.451-19.451-19.451H19.451C8.726 176.238 0 184.963 0 195.689v28.753c0 9.754 7.225 17.831 16.6 19.217v25.656c0 4.143 3.358 7.5 7.5 7.5s7.5-3.357 7.5-7.5v-25.423h71.747v70.755H31.6v-13.369c0-4.143-3.358-7.5-7.5-7.5s-7.5 3.357-7.5 7.5v62.855c0 80.021 65.102 145.122 145.123 145.122s145.123-65.102 145.123-145.122V147.112c0-23.917 19.458-43.375 43.376-43.375s43.376 19.458 43.376 43.375zM15 224.442v-28.753a4.456 4.456 0 0 1 4.451-4.451h94.645a4.456 4.456 0 0 1 4.451 4.451v28.753a4.456 4.456 0 0 1-4.451 4.45H19.451a4.456 4.456 0 0 1-4.451-4.45zm146.723 269.813c-71.75 0-130.123-58.372-130.123-130.122v-34.486h71.747v34.486c0 32.188 26.188 58.375 58.376 58.375s58.376-26.187 58.376-58.375v-34.486h71.747v34.486c0 71.75-58.373 130.122-130.123 130.122z" fill="#000000" opacity="1" data-original="#000000" class=""/>
    <path d="M495.345 267.693V147.112c0-80.021-65.102-145.122-145.123-145.122S205.099 67.091 205.099 147.112v106.223c0 4.143 3.358 7.5 7.5 7.5s7.5-3.357 7.5-7.5V147.112c0-71.75 58.373-130.122 130.123-130.122s130.123 58.372 130.123 130.122v120.241h-71.747v-51.652c0-4.143-3.358-7.5-7.5-7.5s-7.5 3.357-7.5 7.5v51.992c-9.033 1.676-15.9 9.599-15.9 19.11v28.948c0 10.726 8.726 19.451 19.451 19.451h94.645c10.726 0 19.451-8.726 19.451-19.451v-28.948c0-9.51-6.866-17.434-15.9-19.11zm.9 48.058a4.456 4.456 0 0 1-4.451 4.451h-94.645a4.456 4.456 0 0 1-4.451-4.451v-28.948a4.456 4.456 0 0 1 4.451-4.45h94.645a4.455 4.455 0 0 1 4.451 4.45zM77.414 351.917h-4.483c-4.142 0-7.5 3.357-7.5 7.5s3.358 7.5 7.5 7.5h4.483c4.142 0 7.5-3.357 7.5-7.5s-3.358-7.5-7.5-7.5zM125.348 455.717h-4.483c-4.142 0-7.5 3.357-7.5 7.5s3.358 7.5 7.5 7.5h4.483c4.142 0 7.5-3.357 7.5-7.5s-3.358-7.5-7.5-7.5zM77.414 417.439h-4.483c-4.142 0-7.5 3.357-7.5 7.5s3.358 7.5 7.5 7.5h4.483c4.142 0 7.5-3.357 7.5-7.5s-3.358-7.5-7.5-7.5zM228.458 440.543h-4.483c-4.142 0-7.5 3.357-7.5 7.5s3.358 7.5 7.5 7.5h4.483c4.142 0 7.5-3.357 7.5-7.5s-3.358-7.5-7.5-7.5zM171.73 430.543h-4.483c-4.142 0-7.5 3.357-7.5 7.5s3.358 7.5 7.5 7.5h4.483c4.142 0 7.5-3.357 7.5-7.5s-3.358-7.5-7.5-7.5zM240.872 391.23h-4.483c-4.142 0-7.5 3.357-7.5 7.5s3.358 7.5 7.5 7.5h4.483c4.142 0 7.5-3.357 7.5-7.5s-3.358-7.5-7.5-7.5zM268.46 349.503h-4.483c-4.142 0-7.5 3.357-7.5 7.5s3.358 7.5 7.5 7.5h4.483c4.142 0 7.5-3.357 7.5-7.5s-3.358-7.5-7.5-7.5z" fill="#000000" opacity="1" data-original="#000000" class=""/>
  </g>
</svg>
