<svg enable-background="new 0 0 64 64" height="512" viewBox="0 0 64 64" width="512" xmlns="http://www.w3.org/2000/svg"><g id="Layer_3"><g><path d="m47.58 3.92h-31.16c-6.9 0-12.5 5.6-12.5 12.5v31.16c0 6.9 5.6 12.5 12.5 12.5h31.16c6.9 0 12.5-5.6 12.5-12.5v-31.16c0-6.9-5.6-12.5-12.5-12.5zm11.5 43.66c0 6.34-5.16 11.5-11.5 11.5h-31.16c-6.34 0-11.5-5.16-11.5-11.5v-31.16c0-6.34 5.16-11.5 11.5-11.5h31.16c6.34 0 11.5 5.16 11.5 11.5z"/></g><g><path d="m44.35 33.08c-.649-1.18-1.569-2.14-2.739-2.86-.061-.04-.12-.08-.19-.11.46-.43.85-.89 1.17-1.37.84-1.25 1.271-2.67 1.271-4.2 0-2.57-1.021-4.72-3.04-6.41-1.96-1.64-4.931-2.43-9.061-2.43-3.56 0-6.4.73-8.43 2.19-2.06 1.48-3.47 3.62-4.18 6.35-.1.4-.03.83.19 1.19.22.35.59.59 1 .66l7.52 1.35c.26.05.54.02.78-.07-.17.23-.27.51-.29.79l-.41 5.69c-.04.48.17.96.55 1.27.37.3.88.41 1.35.28 1.26-.36 1.9-.42 2.17-.42.76 0 1.29.2 1.69.62.42.45.62 1.12.62 2.06 0 .93-.221 1.62-.681 2.12-.42.47-.899.68-1.55.68-.64 0-1.11-.16-1.48-.52-.24-.22-.69-.85-1.01-2.52-.16-.77-.91-1.31-1.67-1.2l-7.95 1.05c-.44.06-.82.3-1.06.67s-.31.82-.19 1.24c.58 1.97 1.43 3.64 2.52 4.97 1.13 1.37 2.58 2.42 4.31 3.13 1.7.69 3.9 1.02 6.72 1.02 2.9 0 5.3-.47 7.14-1.4 1.9-.95 3.38-2.34 4.4-4.13 1-1.75 1.51-3.61 1.51-5.54 0-1.57-.33-2.97-.98-4.15zm-12.07 14.22c-2.69 0-4.77-.31-6.35-.95-1.57-.64-2.89-1.59-3.91-2.83-1-1.23-1.79-2.78-2.33-4.62-.04-.14-.01-.29.06-.42.08-.12.21-.2.36-.22l8.02-1.06c.23 0 .44.17.48.41.29 1.49.73 2.52 1.31 3.06.57.53 1.28.79 2.17.79.93 0 1.68-.33 2.29-1.01.63-.69.94-1.6.94-2.79 0-1.2-.29-2.1-.891-2.74-.59-.63-1.38-.94-2.42-.94-.58 0-1.4.16-2.44.45-.16.05-.33.01-.45-.09-.13-.1-.2-.26-.19-.42l.41-5.69c.01-.13.08-.26.19-.35.09-.07.2-.12.39-.11.41.07.73.1.96.1.91 0 1.65-.28 2.26-.86.601-.57.891-1.23.891-2 0-.73-.21-1.32-.641-1.74-.419-.43-1.01-.63-1.79-.63-.81 0-1.44.23-1.94.71s-.85 1.39-1.04 2.69c-.02.13-.1.25-.21.33-.08.06-.19.1-.37.09l-7.52-1.35c-.14-.03-.26-.11-.34-.22-.07-.12-.1-.26-.06-.4.65-2.5 1.93-4.45 3.8-5.79 1.85-1.33 4.49-2 7.84-2 3.891 0 6.641.72 8.42 2.2 1.78 1.49 2.681 3.38 2.681 5.64 0 1.33-.37 2.56-1.101 3.64-.399.59-.92 1.15-1.54 1.65-.13.12-.2.29-.18.46.03.17.14.32.3.39.271.12.521.25.74.39 1.02.63 1.83 1.47 2.39 2.5.57 1.02.86 2.26.86 3.66 0 1.75-.47 3.45-1.38 5.05-.92 1.61-2.25 2.86-3.98 3.73-1.699.86-3.949 1.29-6.689 1.29zm-2.95-20.44c.14-.2.24-.43.28-.68.21-1.46.59-1.97.75-2.12.3-.29.69-.42 1.24-.42.5 0 .86.11 1.09.34s.34.56.34 1.03c0 .5-.18.89-.58 1.28-.42.39-.92.58-1.57.58-.13 0-.37-.02-.82-.08-.07-.02-.15-.02-.22-.02-.18 0-.35.03-.51.09z"/></g></g></svg>