<svg enable-background="new 0 0 64 64" height="512" viewBox="0 0 64 64" width="512" xmlns="http://www.w3.org/2000/svg"><g id="Layer_4"><g><path d="m47.58 3.92h-31.16c-6.9 0-12.5 5.6-12.5 12.5v31.16c0 6.9 5.6 12.5 12.5 12.5h31.16c6.9 0 12.5-5.6 12.5-12.5v-31.16c0-6.9-5.6-12.5-12.5-12.5zm11.5 43.66c0 6.34-5.16 11.5-11.5 11.5h-31.16c-6.34 0-11.5-5.16-11.5-11.5v-31.16c0-6.34 5.16-11.5 11.5-11.5h31.16c6.34 0 11.5 5.16 11.5 11.5z"/></g><g><path d="m44.51 33.54h-2.09v-16.1c0-.83-.68-1.5-1.5-1.5h-6.94c-.44 0-.86.19-1.15.53l-14.49 17.23c-.22.27-.35.61-.35.97v6.54c0 .83.67 1.5 1.5 1.5h12.99v3.85c0 .83.68 1.5 1.5 1.5h6.939c.82 0 1.5-.67 1.5-1.5v-3.85h2.09c.83 0 1.5-.67 1.5-1.5v-6.17c.001-.83-.669-1.5-1.499-1.5zm.5 7.67c0 .27-.22.5-.5.5h-2.59c-.28 0-.5.22-.5.5v4.35c0 .28-.229.5-.5.5h-6.94c-.271 0-.5-.22-.5-.5v-4.35c0-.28-.221-.5-.5-.5h-13.49c-.28 0-.5-.23-.5-.5v-6.54c0-.12.04-.24.12-.33l14.49-17.22c.091-.12.23-.18.381-.18h6.939c.271 0 .5.22.5.5v16.6c0 .27.22.5.5.5h2.59c.28 0 .5.22.5.5z"/><path d="m33.16 28.28c-.2-.07-.42-.02-.561.14l-4.489 5.29c-.13.15-.16.36-.08.54.09.17.26.29.46.29h4.49c.279 0 .5-.23.5-.5v-5.29c0-.21-.13-.4-.32-.47zm-.68 5.26h-2.91l2.91-3.43z"/></g></g></svg>