<svg enable-background="new 0 0 64 64" height="512" viewBox="0 0 64 64" width="512" xmlns="http://www.w3.org/2000/svg"><g id="Layer_5"><g><path d="m47.58 3.92h-31.16c-6.9 0-12.5 5.6-12.5 12.5v31.16c0 6.9 5.6 12.5 12.5 12.5h31.16c6.9 0 12.5-5.6 12.5-12.5v-31.16c0-6.9-5.6-12.5-12.5-12.5zm11.5 43.66c0 6.34-5.16 11.5-11.5 11.5h-31.16c-6.34 0-11.5-5.16-11.5-11.5v-31.16c0-6.34 5.16-11.5 11.5-11.5h31.16c6.34 0 11.5 5.16 11.5 11.5z"/></g><g><path d="m42.27 28.35c-2.06-2-4.76-3.02-8.01-3.02-.96 0-1.95.12-2.92.36-.13.03-.26.06-.39.1l.08-.5h11.51c.83 0 1.5-.68 1.5-1.5v-6.35c0-.83-.67-1.5-1.5-1.5h-18.89c-.74 0-1.36.53-1.48 1.26l-2.52 15.39c-.061.39.029.8.27 1.13.24.32.6.54 1 .59l6.771.98c.5.07 1.01-.11 1.34-.49.51-.57.96-.96 1.34-1.15.5-.27 1-.39 1.52-.39.79 0 1.37.22 1.811.7.46.5.7 1.45.7 2.74s-.24 2.22-.721 2.78c-.439.51-.939.74-1.609.74-.61 0-1.101-.19-1.53-.6-.46-.44-.771-1.13-.91-2.07-.12-.78-.82-1.35-1.649-1.27l-8.051.88c-.439.05-.84.29-1.08.66-.25.37-.319.82-.189 1.25.42 1.47.979 2.74 1.64 3.76.681 1.04 1.58 1.98 2.65 2.79 1.1.82 2.43 1.45 3.96 1.85 1.47.39 3.229.59 5.24.59 2.859 0 5.279-.51 7.18-1.52 1.939-1.04 3.46-2.56 4.52-4.52 1.03-1.92 1.561-3.95 1.561-6.05-.004-3.03-1.064-5.6-3.144-7.62zm-10.12 18.71c-1.931 0-3.601-.19-4.99-.55-1.4-.38-2.61-.94-3.601-1.69-.989-.74-1.8-1.59-2.42-2.54-.609-.94-1.12-2.11-1.52-3.49-.04-.14-.021-.29.06-.42.08-.12.21-.2.36-.22l8.1-.88c.25 0 .46.18.5.43.17 1.17.58 2.06 1.21 2.65.631.58 1.351.87 2.221.87.96 0 1.729-.36 2.359-1.09.641-.74.971-1.9.971-3.43 0-1.57-.33-2.72-.971-3.41-.62-.69-1.479-1.03-2.54-1.03-.689 0-1.34.16-1.989.5-.48.25-1.021.7-1.62 1.38-.09.11-.221.17-.44.16l-6.78-.98c-.13-.01-.25-.09-.329-.2-.08-.1-.11-.24-.091-.37l2.521-15.39c.04-.24.25-.42.49-.42h18.89c.27 0 .5.22.5.5v6.35c0 .27-.23.5-.5.5h-12.371l-.47 2.94.78-.26c.369-.12.729-.22 1.09-.31.899-.22 1.81-.33 2.689-.33 2.98 0 5.44.93 7.32 2.74 1.87 1.83 2.83 4.15 2.83 6.9 0 1.93-.49 3.8-1.44 5.57-.96 1.79-2.35 3.17-4.109 4.11-1.75.94-4.01 1.41-6.71 1.41z"/></g></g></svg>