<?xml version="1.0" encoding="UTF-8"?>
<svg xmlns="http://www.w3.org/2000/svg" xmlns:xlink="http://www.w3.org/1999/xlink" version="1.1" width="512" height="512" x="0" y="0" viewBox="0 0 64 64" style="enable-background:new 0 0 512 512" xml:space="preserve" class="">
  <g>
    <path fill="#0080d1" d="M29 9.995a2 2 0 1 1-2-2c1.1 0 2 .9 2 2z" opacity="1" data-original="#e6e9ed" class=""/>
    <path fill="#00a3da" d="M6 7.995h4v21.01H6z" opacity="1" data-original="#ccd1d9" class=""/>
    <g fill="#e6e9ed">
      <path d="M55 38.005v4h-4v-4h1.5zM47 42.005h4v14h-4zM39 38.005h4v4h-4zM39 42.005h4v14h-4zM55 42.005h4v14h-4zM59 38.005h4v4h-4zM59 42.005h4v14h-4zM43 42.005h4v14h-4zM43 38.005h4v4h-4zM51 42.005h4v14h-4zM55 38.005h4v4h-4zM51 38.005v4h-4v-4h2.5z" fill="#0080d1" opacity="1" data-original="#e6e9ed" class=""/>
    </g>
    <path fill="#00a3da" d="M52.5 29.005v9h-3v-9z" opacity="1" data-original="#ccd1d9" class=""/>
    <path fill="#e11a2e" d="M57 16.995v10.01c0 1.1-.9 2-2 2h-8c-1.1 0-2-.9-2-2v-10.01c0-1.101.9-2 2-2h8c1.1 0 2 .9 2 2z" opacity="1" data-original="#ed5565" class=""/>
    <path fill="#00a3da" d="M34 21.005h11v3H34zM15 32.005h5v3h-5zM27 14.005h5a2 2 0 1 1 0 4H22a2 2 0 0 1-2-2c0-1.11.89-2 2-2z" opacity="1" data-original="#ccd1d9" class=""/>
    <path fill="#0080d1" d="M34 16.005v38c0 1.1-.9 2-2 2H22a2 2 0 0 1-2-2v-38a2 2 0 0 0 2 2h10c1.1 0 2-.901 2-2z" opacity="1" data-original="#e6e9ed" class=""/>
    <path fill="#545c66" d="M15 39.005v11H1v-11h3v8h8v-8z" opacity="1" data-original="#545c66" class=""/>
    <path fill="#e11a2e" d="M4 39.005h8v8H4z" opacity="1" data-original="#ed5565" class=""/>
    <path fill="#656d78" d="M1 50.005h14v6H1zM15 35.005v4H1v-10h14v3z" opacity="1" data-original="#656d78"/>
    <path d="M15 57.004H1a1 1 0 0 1-1-1V29.003a1 1 0 0 1 1-1h14a1 1 0 0 1 1 1v27.001a1 1 0 0 1-1 1zm-13-2h12V30.003H2z" fill="#000000" opacity="1" data-original="#000000"/>
    <path d="M12 48.004H4a1 1 0 0 1-1-1v-8a1 1 0 1 1 2 0v7h6v-7a1 1 0 1 1 2 0v8a1 1 0 0 1-1 1z" fill="#000000" opacity="1" data-original="#000000"/>
    <path d="M15 40.005H1a1 1 0 1 1 0-2h14a1 1 0 1 1 0 2zM15 51.002H1a1 1 0 1 1 0-2h14a1 1 0 1 1 0 2zM21.999 19.001c-1.654 0-3-1.346-3-3s1.346-3 3-3a1 1 0 1 1 0 2 1 1 0 0 0 0 2 1 1 0 1 1 0 2zM31.998 19.001a1 1 0 1 1 0-2 1 1 0 0 0 0-2 1 1 0 1 1 0-2c1.654 0 3 1.346 3 3s-1.346 3-3 3z" fill="#000000" opacity="1" data-original="#000000"/>
    <path d="M31.998 19.001h-9.999a1 1 0 1 1 0-2h9.999a1 1 0 1 1 0 2zM21.999 57.003c-1.654 0-3-1.346-3-3a1 1 0 1 1 2 0 1 1 0 0 0 1 1 1 1 0 1 1 0 2zM31.998 57.003a1 1 0 1 1 0-2 1 1 0 0 0 1-1 1 1 0 1 1 2 0c0 1.654-1.346 3-3 3z" fill="#000000" opacity="1" data-original="#000000"/>
    <path d="M31.998 57.003h-9.999a1 1 0 1 1 0-2h9.999a1 1 0 1 1 0 2zM31.998 15.001h-9.999a1 1 0 1 1 0-2h9.999a1 1 0 1 1 0 2zM19.999 55.003a1 1 0 0 1-1-1V16.001a1 1 0 1 1 2 0v38.002a1 1 0 0 1-1 1zM33.998 55.003a1 1 0 0 1-1-1V16.001a1 1 0 1 1 2 0v38.002a1 1 0 0 1-1 1zM6 30.003a1 1 0 0 1-1-1V7.996a1 1 0 1 1 2 0v21.007a1 1 0 0 1-1 1zM10 30.003a1 1 0 0 1-1-1V7.996a1 1 0 1 1 2 0v21.007a1 1 0 0 1-1 1z" fill="#000000" opacity="1" data-original="#000000"/>
    <path d="M26.999 15.996a1 1 0 0 1-1-1v-2.999a1 1 0 1 1 2 0v2.999a1 1 0 0 1-1 1z" fill="#000000" opacity="1" data-original="#000000"/>
    <path d="M27 12.997c-1.654 0-3-1.346-3-3s1.346-3 3-3 3 1.346 3 3-1.346 3-3 3zm0-4a1 1 0 1 0 0 2 1 1 0 0 0 0-2zM19.999 32.999H15a1 1 0 1 1 0-2h4.999a1 1 0 1 1 0 2zM19.999 35.999H15a1 1 0 1 1 0-2h4.999a1 1 0 1 1 0 2zM44.996 21.999H34a1 1 0 1 1 0-2h10.996a1 1 0 1 1 0 2zM44.996 24.999H34a1 1 0 1 1 0-2h10.996a1 1 0 1 1 0 2zM63 57.002H38.998a1 1 0 0 1-1-1V37.999a1 1 0 0 1 1-1H63a1 1 0 0 1 1 1v18.003a1 1 0 0 1-1 1zm-23.002-2H62V38.999H39.998z" fill="#000000" opacity="1" data-original="#000000"/>
    <path d="M63 42.999H38.998a1 1 0 1 1 0-2H63a1 1 0 1 1 0 2z" fill="#000000" opacity="1" data-original="#000000"/>
    <path d="M42.999 57.002a1 1 0 0 1-1-1V37.999a1 1 0 1 1 2 0v18.003a1 1 0 0 1-1 1zM46.998 57.002a1 1 0 0 1-1-1V37.999a1 1 0 1 1 2 0v18.003a1 1 0 0 1-1 1zM50.997 57.002a1 1 0 0 1-1-1V37.999a1 1 0 1 1 2 0v18.003a1 1 0 0 1-1 1zM54.996 57.002a1 1 0 0 1-1-1V37.999a1 1 0 1 1 2 0v18.003a1 1 0 0 1-1 1zM59 57.002a1 1 0 0 1-1-1V37.999a1 1 0 1 1 2 0v18.003a1 1 0 0 1-1 1zM54.999 30h-8.003c-1.654 0-3-1.346-3-3V16.998c0-1.654 1.346-3 3-3h8.003c1.654 0 3 1.346 3 3V27c0 1.654-1.346 3-3 3zm-8.003-14.002a1 1 0 0 0-1 1V27a1 1 0 0 0 1 1h8.003a1 1 0 0 0 1-1V16.998a1 1 0 0 0-1-1z" fill="#000000" opacity="1" data-original="#000000"/>
    <path d="M49.5 38.999a1 1 0 0 1-1-1V29a1 1 0 1 1 2 0v8.999a1 1 0 0 1-1 1zM52.5 38.999a1 1 0 0 1-1-1V29a1 1 0 1 1 2 0v8.999a1 1 0 0 1-1 1z" fill="#000000" opacity="1" data-original="#000000"/>
  </g>
</svg>
