<?xml version="1.0" encoding="UTF-8"?>
<svg xmlns="http://www.w3.org/2000/svg" xmlns:xlink="http://www.w3.org/1999/xlink" version="1.1" width="512" height="512" x="0" y="0" viewBox="0 0 64 64" style="enable-background:new 0 0 512 512" xml:space="preserve" class="">
  <g>
    <path fill="#00a3da" d="M56.87 58.46 59 62H35l2.13-3.54c.54-.91 1.51-1.46 2.57-1.46H54.3c1.06 0 2.03.55 2.57 1.46z" opacity="1" data-original="#aab2bd" class=""/>
    <path fill="#e11a2e" d="M54 39.75V57H40V39.75c.64.16 1.31.25 2 .25h10c.69 0 1.36-.09 2-.25z" opacity="1" data-original="#ccd1d9" class=""/>
    <path fill="#00a3da" d="M60 29v3c0 3.73-2.55 6.86-6 7.75-.64.16-1.31.25-2 .25H42c-.69 0-1.36-.09-2-.25-3.45-.89-6-4.02-6-7.75v-3c0-.55.45-1 1-1h24c.55 0 1 .45 1 1zM18.16 53.74 20 62H5.89V48h23.83a7.337 7.337 0 0 1-1.74 3.1c-1.26 1.34-3 2.22-4.97 2.34z" opacity="1" data-original="#e6e9ed" class=""/>
    <path fill="#e11a2e" d="M7.06 22.82 11 44H5.89L2.02 23.18c-.12-.61.36-1.18 1-1.18h3.04c.49 0 .91.35 1 .82zM30 46c0 .69-.09 1.36-.28 2H5.89v-4H28c1.1 0 2 .9 2 2z" opacity="1" data-original="#ccd1d9" class=""/>
    <path fill="#000000" d="M26 30v3c0 .55-.45 1-1 1h-8c-.55 0-1-.45-1-1v-6c0-.55.45-1 1-1h8c.55 0 1 .45 1 1z" opacity="1" data-original="#fcd770" class=""/>
    <path fill="#00a3da" d="M24 34v3c0 .55-.45 1-1 1h-4c-.55 0-1-.45-1-1v-3z" opacity="1" data-original="#e6e9ed" class=""/>
    <path fill="#69d6f4" d="M62 3v16c0 .55-.45 1-1 1H33c-.55 0-1-.45-1-1V3c0-.55.45-1 1-1h28c.55 0 1 .45 1 1z" opacity="1" data-original="#69d6f4"/>
    <path d="M15 33c0 1.103.897 2 2 2v2c0 1.103.897 2 2 2h4c1.103 0 2-.897 2-2v-2c1.103 0 2-.897 2-2v-2h2v-2h-2v-2c0-1.103-.897-2-2-2h-8c-1.103 0-2 .897-2 2v2h-2v2h2zm8 4h-4v-2h4zm-6-10h8l.002 6H17z" fill="#000000" opacity="1" data-original="#000000" class=""/>
    <path d="M57.731 57.941A4.013 4.013 0 0 0 55 56.07V40.475c3.49-1.239 6-4.565 6-8.475v-3c0-1.103-.897-2-2-2H45v-2h-2v2h-2v-8c0-1.103.897-2 2-2s2 .897 2 2v2h2v-2c0-2.206-1.794-4-4-4s-4 1.794-4 4v8h-4c-1.103 0-2 .897-2 2v3c0 3.91 2.51 7.236 6 8.475V56.07a4.016 4.016 0 0 0-2.731 1.871L34.434 61H20.802l-1.408-6.335 3.682-.23C27.52 54.157 31 50.452 31 46c0-1.654-1.346-3-3-3H11.831L8.046 22.64A2.015 2.015 0 0 0 6.057 21H3.022a2.03 2.03 0 0 0-1.563.73 1.983 1.983 0 0 0-.427 1.631l3.854 20.73V61H1v2h61v-2h-2.434zM28 45a1 1 0 0 1 1 1c0 .34-.034.673-.085 1H6.888v-2zM3.022 23l3.057.004L9.797 43H6.704zm3.866 38V49h21.367a6.458 6.458 0 0 1-5.304 3.438l-9.014.563.125 1.996 3.311-.207 1.38 6.21zM35 32v-3h24v3c0 3.859-3.141 7-7 7H42c-3.859 0-7-3.141-7-7zm18 8.941V56H41V40.941c.329.037.662.059 1 .059h10c.338 0 .671-.022 1-.059zM36.766 61l1.217-2.029A2.011 2.011 0 0 1 39.698 58h14.604c.698 0 1.355.372 1.715.971L57.234 61z" fill="#000000" opacity="1" data-original="#000000" class=""/>
    <path d="M61 1H33c-1.103 0-2 .897-2 2v16c0 1.103.897 2 2 2h4v-2h-4V3h28v16H49v2h12c1.103 0 2-.897 2-2V3c0-1.103-.897-2-2-2z" fill="#000000" opacity="1" data-original="#000000" class=""/>
    <path d="m38.287 10.71 1.414-1.414 3 3-1.414 1.414zM42.288 6.712l1.414-1.414 7.998 7.998-1.414 1.414zM49.287 6.712l1.414-1.414 5 5-1.415 1.413z" fill="#000000" opacity="1" data-original="#000000" class=""/>
  </g>
</svg>
