<svg enable-background="new 0 0 64 64" height="512" viewBox="0 0 64 64" width="512" xmlns="http://www.w3.org/2000/svg"><g id="Layer_6"><g><path d="m47.58 3.92h-31.16c-6.9 0-12.5 5.6-12.5 12.5v31.16c0 6.9 5.6 12.5 12.5 12.5h31.16c6.9 0 12.5-5.6 12.5-12.5v-31.16c0-6.9-5.6-12.5-12.5-12.5zm11.5 43.66c0 6.34-5.16 11.5-11.5 11.5h-31.16c-6.34 0-11.5-5.16-11.5-11.5v-31.16c0-6.34 5.16-11.5 11.5-11.5h31.16c6.34 0 11.5 5.16 11.5 11.5z"/></g><g><path d="m34.79 33.73c-.64-.73-1.4-1.09-2.34-1.09-.96 0-1.77.36-2.41 1.06-.66.73-1 1.8-1 3.18 0 1.42.36 2.53 1.05 3.31.68.77 1.52 1.15 2.5 1.15.9 0 1.63-.33 2.24-1.02.62-.7.93-1.78.93-3.22 0-1.49-.33-2.62-.97-3.37zm-.71 5.93c-.42.47-.88.68-1.49.68-.7 0-1.26-.26-1.75-.81-.53-.59-.8-1.48-.8-2.65 0-1.13.25-1.97.73-2.5.47-.51 1-.74 1.68-.74.64 0 1.13.23 1.58.74.48.57.73 1.48.73 2.72 0 1.19-.23 2.05-.68 2.56zm.71-5.93c-.64-.73-1.4-1.09-2.34-1.09-.96 0-1.77.36-2.41 1.06-.66.73-1 1.8-1 3.18 0 1.42.36 2.53 1.05 3.31.68.77 1.52 1.15 2.5 1.15.9 0 1.63-.33 2.24-1.02.62-.7.93-1.78.93-3.22 0-1.49-.33-2.62-.97-3.37zm-.71 5.93c-.42.47-.88.68-1.49.68-.7 0-1.26-.26-1.75-.81-.53-.59-.8-1.48-.8-2.65 0-1.13.25-1.97.73-2.5.47-.51 1-.74 1.68-.74.64 0 1.13.23 1.58.74.48.57.73 1.48.73 2.72 0 1.19-.23 2.05-.68 2.56zm.71-5.93c-.64-.73-1.4-1.09-2.34-1.09-.96 0-1.77.36-2.41 1.06-.66.73-1 1.8-1 3.18 0 1.42.36 2.53 1.05 3.31.68.77 1.52 1.15 2.5 1.15.9 0 1.63-.33 2.24-1.02.62-.7.93-1.78.93-3.22 0-1.49-.33-2.62-.97-3.37zm-.71 5.93c-.42.47-.88.68-1.49.68-.7 0-1.26-.26-1.75-.81-.53-.59-.8-1.48-.8-2.65 0-1.13.25-1.97.73-2.5.47-.51 1-.74 1.68-.74.64 0 1.13.23 1.58.74.48.57.73 1.48.73 2.72 0 1.19-.23 2.05-.68 2.56z"/><path d="m42.23 28.91c-1.2-1.24-2.57-2.13-4.1-2.64l5.25-.65c.43-.06.83-.3 1.07-.67s.31-.83.18-1.25c-.52-1.73-1.29-3.2-2.29-4.38-1.03-1.19-2.33-2.11-3.88-2.73-1.51-.6-3.46-.89-5.95-.89-4.28 0-7.7 1.37-10.16 4.09-2.42 2.68-3.65 6.84-3.65 12.37 0 3.74.58 6.82 1.71 9.15 1.16 2.42 2.76 4.21 4.76 5.34 1.95 1.1 4.52 1.65 7.63 1.65 2.61 0 4.84-.45 6.63-1.36 1.84-.93 3.3-2.32 4.33-4.14 1.02-1.78 1.54-3.77 1.54-5.92 0-3.19-1.04-5.87-3.07-7.97zm-9.43 18.39c-2.94 0-5.34-.51-7.14-1.52-1.81-1.03-3.28-2.68-4.35-4.9-1.07-2.2-1.61-5.14-1.61-8.72 0-5.28 1.14-9.21 3.39-11.7 2.27-2.5 5.43-3.76 9.42-3.76 2.36 0 4.19.27 5.58.82 1.39.56 2.57 1.38 3.49 2.45.91 1.07 1.62 2.42 2.09 4.02.04.14.02.29-.06.41-.08.13-.21.21-.36.23l-7.97.98c-.24 0-.45-.18-.49-.41-.19-1-.49-1.69-.89-2.07-.4-.37-.88-.55-1.47-.55-1.1 0-1.94.55-2.57 1.69-.33.6-.62 1.74-.84 3.37-.02.2.07.39.23.49.17.11.38.1.54-.01.4-.26.8-.48 1.2-.67 1.06-.49 2.3-.74 3.69-.74 2.68 0 4.97.98 6.83 2.89 1.85 1.91 2.79 4.36 2.79 7.28 0 1.97-.48 3.79-1.41 5.43s-2.25 2.9-3.92 3.74c-1.64.83-3.72 1.25-6.17 1.25zm1.12-21.56c-1.23.08-2.35.35-3.35.81-.13.06-.26.12-.4.19.22-1.23.44-1.76.57-1.99.57-1.04 1.2-1.17 1.69-1.17.34 0 .57.08.78.28.11.1.4.46.6 1.52.02.13.06.25.11.36z"/></g></g></svg>