<svg enable-background="new 0 0 64 64" height="512" viewBox="0 0 64 64" width="512" xmlns="http://www.w3.org/2000/svg"><g id="Layer_7"><g><path d="m47.58 3.92h-31.16c-6.9 0-12.5 5.6-12.5 12.5v31.16c0 6.9 5.6 12.5 12.5 12.5h31.16c6.9 0 12.5-5.6 12.5-12.5v-31.16c0-6.9-5.6-12.5-12.5-12.5zm11.5 43.66c0 6.34-5.16 11.5-11.5 11.5h-31.16c-6.34 0-11.5-5.16-11.5-11.5v-31.16c0-6.34 5.16-11.5 11.5-11.5h31.16c6.34 0 11.5 5.16 11.5 11.5z"/></g><g><path d="m43.61 16.18h-23.22c-.83 0-1.5.68-1.5 1.5v6.72c0 .83.67 1.5 1.5 1.5h11.1c-2.05 2.82-3.63 5.53-4.71 8.07-1.39 3.27-2.41 7.36-3.05 12.15-.06.43.07.86.35 1.18.29.33.7.52 1.13.52h7.93c.78 0 1.44-.61 1.5-1.39.25-3.23.74-6.06 1.46-8.41.91-3.02 2.16-5.79 3.72-8.24 1.27-2 2.89-3.89 4.8-5.61.31-.29.49-.69.49-1.12v-5.37c0-.82-.67-1.5-1.5-1.5zm.5 6.87c0 .15-.06.28-.16.38-1.98 1.78-3.65 3.74-4.98 5.81-1.6 2.53-2.89 5.38-3.82 8.49-.75 2.42-1.25 5.32-1.51 8.62-.02.26-.24.47-.5.47h-7.93c-.14 0-.28-.07-.37-.17-.1-.11-.14-.26-.12-.4.63-4.7 1.63-8.7 2.98-11.89 1.15-2.71 2.89-5.62 5.18-8.66.12-.15.13-.35.05-.52-.09-.17-.26-.28-.45-.28h-12.09c-.28 0-.5-.22-.5-.5v-6.72c0-.27.22-.5.5-.5h23.22c.28 0 .5.23.5.5z"/></g></g></svg>