<svg xmlns="http://www.w3.org/2000/svg" width="182" height="62" viewBox="0 0 182 62"><defs><linearGradient id="a" x1="3.75%" x2="95.44%" y1="59.413%" y2="39.26%"><stop offset="0%" stop-color="#FCDA0C"/><stop offset="25.04%" stop-color="#E8CA07"/><stop offset="100%" stop-color="#FFE32E"/></linearGradient><linearGradient id="b" x1="4.339%" x2="96.133%" y1="59.722%" y2="41.432%"><stop offset="0%" stop-color="#004A9B"/><stop offset="100%" stop-color="#0057B7"/></linearGradient><linearGradient id="c" x1="3.75%" x2="95.44%" y1="60.938%" y2="37.521%"><stop offset="0%" stop-color="#FCDA0C"/><stop offset="25.04%" stop-color="#E8CA07"/><stop offset="100%" stop-color="#FFE32E"/></linearGradient><linearGradient id="d" x1="3.75%" x2="95.44%" y1="59.55%" y2="39.104%"><stop offset="0%" stop-color="#0057B7"/><stop offset="25.04%" stop-color="#014086"/><stop offset="100%" stop-color="#0067D9"/></linearGradient></defs><g fill="none" fill-rule="evenodd"><rect width="180" height="20" y="42" fill="#C00" fill-rule="nonzero"/><g fill="#C00" fill-rule="nonzero"><path d="M10.9 17.6C17 17.6 21.4 14.5 21.4 8.3 21.4 2.8 17.7 0 11.8 0L.2 0 .2 3.5 2.5 3.6 2.5 25.7C2.5 26.5 2 26.8 1.3 26.8L0 27 0 30.3 11.4 30.3 11.4 26.8 7.5 26.7 7.5 17.6 10.9 17.6 10.9 17.6ZM6.8 14.9 7.5 13 7.5 6.3C7.5 4.8 9.4 3.5 11.8 3.5 14 3.4 16 4.6 16 8.9 16 11.7 14.8 14.6 11.2 14.6 10.5 14.6 9.6 14.5 8.8 14.3L6.8 14.9ZM62.6 27.4 60.4 27.4 60.4 3.1 53.4 3.1 53.4 6.2 54.8 6.3C55.4 6.4 55.8 6.9 55.8 7.4L55.8 24.9 55.8 26.6 55.8 30.4 64.1 30.4C63.1 29.1 62.9 28.8 62.6 27.4ZM80.5 23.6 80.5 10.8C77.6 10.8 75.8 10.8 73.6 10.8 70.2 10.8 67.6 11.2 65.9 13.2 64.2 15.2 63.3 17.9 63.3 21.5 63.3 24.4 63.9 26.8 65.2 28.4 66.5 30.1 68.4 30.4 71.1 30.4 73.4 30.4 75.1 30 76.4 28.1L76.5 28.1 76.5 30.4 80.5 30.4 80.5 26.1 80.5 23.6 80.5 23.6ZM76 24.3C76 25.2 75.6 26 74.9 26.7 74.2 27.4 73.2 27.5 72.1 27.5 69.4 27.5 68.1 25.6 68.1 21.4 68.1 19.1 68.5 17.2 69.3 15.8 70.1 14.4 71.3 13.9 73.1 13.9 74.4 13.9 75.4 13.8 76.1 14.2L76 24.3 76 24.3ZM37 23.6 37 10.8C34.1 10.8 32.3 10.8 30.1 10.8 26.7 10.8 24.1 11.2 22.4 13.2 20.7 15.2 19.8 17.9 19.8 21.5 19.8 24.4 20.4 26.8 21.7 28.4 23 30.1 24.9 30.4 27.6 30.4 29.9 30.4 31.6 30 32.9 28.1L33 28.1 33 30.4 37 30.4 37 26.1 37 23.6ZM32.5 24.3C32.5 25.2 32.1 26 31.4 26.7 30.7 27.4 29.7 27.5 28.6 27.5 25.9 27.5 24.6 25.6 24.6 21.4 24.6 19.1 25 17.2 25.8 15.8 26.6 14.4 27.8 13.9 29.6 13.9 30.9 13.9 31.9 13.8 32.6 14.2L32.5 24.3 32.5 24.3ZM49 14C48.4 13.8 47.6 13.8 46.7 13.8 45.8 13.8 45.1 13.7 44.6 14.1 44.1 14.5 43.8 14.8 43.8 15.4 43.8 16 43.9 16.4 44.1 16.8 44.3 17.1 44.6 17.4 45 17.6 45.6 17.9 46.4 18.2 47.3 18.5 48.2 18.7 48.9 18.9 49.3 19.1 49.7 19.2 50.3 19.5 51 19.8 51.7 20.1 52.2 20.5 52.5 20.9 53.4 21.9 53.4 23.1 53.4 24.6 53.4 26.6 53.2 28.1 51.8 29.2 50.4 30.3 48.6 30.4 46.4 30.4 43.2 30.4 40.9 30.5 39.2 29.7L39.2 24.3 42.7 24 42.7 25.9C42.7 27 43.8 27.4 46 27.4 48.2 27.4 49.3 26.8 49.3 25.3 49.3 24.7 49.1 24.3 48.7 23.9 48.3 23.5 48 23.3 47.6 23.2 47.2 23.1 46.8 22.9 46.3 22.8 45.8 22.7 45.3 22.5 44.8 22.4 44.3 22.3 43.8 22.1 43.2 21.9 42.6 21.7 42 21.4 41.4 20.9 40.1 20 39.4 18.6 39.4 16.6 39.4 14.6 40.1 13 41.5 11.9 42.9 10.8 44.7 10.8 46.9 10.8 49.1 10.8 51.2 10.7 53.3 11.8L53.3 16.5 49.8 16.8 49.8 15.2C49.9 14.5 49.6 14.3 49 14ZM149.2 14C148.6 13.8 147.8 13.8 146.9 13.8 146 13.8 145.3 13.7 144.8 14.1 144.3 14.5 144 14.8 144 15.4 144 16 144.1 16.4 144.3 16.8 144.5 17.1 144.8 17.4 145.2 17.6 145.8 17.9 146.6 18.2 147.5 18.5 148.4 18.7 149.1 18.9 149.5 19.1 149.9 19.2 150.5 19.5 151.2 19.8 151.9 20.1 152.4 20.5 152.7 20.9 153.6 21.9 153.6 23.1 153.6 24.6 153.6 26.6 153.4 28.1 152 29.2 150.6 30.3 148.8 30.4 146.6 30.4 143.4 30.4 141.1 30.5 139.4 29.7L139.4 24.3 142.9 24 142.9 25.9C142.9 27 144 27.4 146.2 27.4 148.4 27.4 149.5 26.8 149.5 25.3 149.5 24.7 149.3 24.3 148.9 23.9 148.5 23.5 148.2 23.3 147.8 23.2 147.4 23.1 147 22.9 146.5 22.8 146 22.7 145.5 22.5 145 22.4 144.5 22.3 144 22.1 143.4 21.9 142.8 21.7 142.2 21.4 141.6 20.9 140.3 20 139.6 18.6 139.6 16.6 139.6 14.6 140.3 13 141.7 11.9 143.1 10.8 144.9 10.8 147.1 10.8 149.3 10.8 151.4 10.7 153.5 11.8L153.5 16.5 150 16.8 150 15.2C150.1 14.5 149.8 14.3 149.2 14ZM170.8 27.4 167.9 27.4 167.9 3.1 160.9 3.1 160.9 6.2 162.3 6.3C162.9 6.4 163.3 6.9 163.3 7.4L163.3 24.9 163.3 26.6 163.3 30.4 171.9 30.4C171 29.1 171.1 28.8 170.8 27.4ZM179.4 27.4C178.5 27.4 177.9 27.2 177.5 26.7 177.1 26.2 176.9 25.4 176.9 24.3L176.9 13.9 181.1 13.9 181.1 10.8 176.9 10.8 176.9 6.2 174.4 6.2C173.9 7.6 173.3 9.2 172.7 9.9 172.1 10.7 171.2 10.7 169.9 10.8L169.5 10.8 169.5 13.9 172.3 13.9 172.3 24.5C172.3 30.5 173.5 30.5 178.3 30.5 179.6 30.5 179.9 30.5 181.1 30.5L181.1 27.5C180.1 27.4 180.1 27.4 179.4 27.4Z"/><circle cx="158.1" cy="28.1" r="2.3"/><path d="M92.2 10.8 92.2 13.9 93.4 13.9C93.8 13.9 94 14 94.2 14.2 94.3 14.4 94.4 14.9 94.4 15.3L94.4 23.5C94.4 24.6 94 25.5 93.3 26.2 92.6 27 91.6 27.3 90.4 27.3 89.2 27.3 88.4 26.9 88 26.2 87.6 25.5 87.4 24.5 87.4 23.1L87.4 10.8 82.8 10.8 82.8 15.2 82.8 18 82.8 24.2C82.8 28.7 84.8 30.4 88.8 30.4 91.6 30.4 93.7 29.9 95.1 27.9L95.1 30.4 99.1 30.4 99.1 26.1 99.1 21.7 99.1 10.8 92.2 10.8ZM118.3 24.1 118.3 23.6 118.3 18C118.3 17.5 118.3 16.9 118.4 16.3 118.6 14.3 119 12.8 120.5 11.7 121.1 11.2 121.4 11 122.1 10.8L118.3 10.8C118 10.8 117.8 10.8 117.5 10.8 115 10.8 113.4 10.8 111.4 10.8 108 10.8 105.4 11.2 103.7 13.2 102 15.2 101.1 17.9 101.1 21.5 101.1 24.4 101.7 26.8 103 28.4 104.3 30.1 106.2 30.4 108.9 30.4 111 30.4 112.7 30 113.9 28.5L113.9 29.7 113.9 30.5C113.9 33.7 113 36 109.5 36 108.4 36 107.5 35.9 106.8 35.6 106.1 35.3 105.9 35 105.9 34.2L105.9 32.4 102.3 32.7 102.3 37.9C103.9 38.7 107 39.1 109.4 39.1 115 39.1 117.6 36.5 118.1 31 118.1 30.7 118.1 30.5 118.1 30.2L118.3 24.1ZM113.8 24.2C113.8 25.1 113.4 25.9 112.7 26.6 112 27.3 111 27.4 109.9 27.4 107.2 27.4 105.9 25.5 105.9 21.3 105.9 19 106.3 17.1 107.1 15.7 107.9 14.3 109.1 13.8 110.9 13.8 112.2 13.8 113.2 13.7 113.9 14.1L113.8 24.2 113.8 24.2Z"/><path d="M129.5,10.2 C132.4,10.2 138.2,11.1 138.2,20.1 C138.2,27.6 134,31.1 128.9,31.1 C123.7,31.1 120.2,27.7 120.2,20.6 C120.2,12.5 125.4,10.2 129.5,10.2 Z M133.4,20.7 C133.4,16.3 132.3,13.6 129.2,13.6 C126.1,13.6 124.9,16.3 124.9,20 C124.9,23.6 125.4,27.6 129.2,27.6 C132.2,27.6 133.4,24.8 133.4,20.7 Z"/></g><path fill="#D1D3D4" d="M178.8,45.2 C179.4,47 180,48.8 180.5,50.7 L178.8,45.2 L178.8,45.2 Z"/><path fill="#D1D3D4" d="M178.8,45.2 C179.4,47 180,48.8 180.5,50.7 L178.8,45.2 L178.8,45.2 Z"/><g transform="translate(131.3 29.373)"><path fill="url(#a)" d="M48.9,20.4265629 C45.2,15.7265629 33.7,29.6265629 28.7,25.6265629 C27.7,22.1265629 26.9,19.0265629 25.7,15.6265629 C33.2,16.8265629 42.8,6.62656289 46,11.2265629 C47.1,14.1265629 48.1,17.3265629 48.9,20.4265629 Z"/><path fill="url(#b)" d="M21.9,5.52656289 C32.1,4.72656289 39.9,-2.67343711 42.3,2.32656289 C43.7,5.52656289 44.9,8.42656289 45.9,11.2265629 C42.8,6.52656289 33.3,16.8265629 25.8,15.7265629 C24.7,12.3265629 23.4,8.92656289 21.9,5.52656289 L21.9,5.52656289 Z"/><path fill="#D7BB06" d="M28.7,25.6265629 C30.7,24.2932296 32.0333333,23.2932296 32.7,22.6265629 C33.7,21.6265629 33.7,20.6265629 33.7,20.6265629 C33.7,20.6265629 33.3666667,19.9598962 32.7,18.6265629 L26.7,19.6265629 L28.7,25.6265629 Z"/><path fill="url(#c)" d="M30.5,10.8265629 C31.7,14.1265629 32.8,17.4265629 33.8,20.8265629 C30.9,16.1265629 18.6,30.7265629 7.2,32.5265629 C6.2,28.9265629 5.1,25.2265629 4,21.6265629 C15.4,19.8265629 27.3,6.32656289 30.5,10.8265629 L30.5,10.8265629 Z"/><path fill="url(#d)" d="M0,10.8265629 C12.2,9.02656289 23.8,-4.47343711 26.7,1.52656289 C28.1,4.52656289 29.3,7.62656289 30.5,10.8265629 C27.3,6.32656289 15.4,19.8265629 3.9,21.6265629 C2.7,17.8265629 1.4,14.1265629 0,10.8265629 L0,10.8265629 Z"/></g><g fill-rule="nonzero" transform="translate(5 43.1)"><path fill="#FFF" d="M5.9,7.7 C5.9,8.6 5.6,9.3 4.9,9.8 C4.2,10.3 3.3,10.5 2.1,10.5 L1.1,10.5 L1.1,14.1 L0,14.1 L0,5 L2.4,5 C4.7,5 5.9,5.9 5.9,7.7 Z M1.1,9.6 L2.1,9.6 C3.1,9.6 3.8,9.4 4.2,9.1 C4.6,8.8 4.8,8.3 4.8,7.6 C4.8,7 4.6,6.6 4.2,6.3 C3.8,6 3.2,5.9 2.3,5.9 L1.1,5.9 L1.1,9.6 Z M12.8,14.1 L11.6,11.2 L8,11.2 L6.9,14.1 L5.8,14.1 L9.5,5 L10.4,5 L14.1,14.1 L12.8,14.1 Z M11.3,10.3 L10.2,7.5 C10.1,7.1 9.9,6.7 9.8,6.2 C9.7,6.6 9.6,7 9.4,7.5 L8.3,10.3 L11.3,10.3 Z M20.3,11.7 C20.3,12.5 20,13.1 19.4,13.6 C18.8,14 18,14.3 17,14.3 C15.9,14.3 15,14.2 14.5,13.9 L14.5,12.9 C14.9,13.1 15.3,13.2 15.7,13.3 C16.1,13.4 16.6,13.4 17,13.4 C17.7,13.4 18.3,13.3 18.6,13 C18.9,12.7 19.1,12.4 19.1,11.9 C19.1,11.6 19,11.3 18.9,11.1 C18.8,10.9 18.6,10.7 18.3,10.5 C18,10.3 17.6,10.1 17,9.9 C16.1,9.6 15.5,9.2 15.1,8.8 C14.7,8.4 14.5,7.8 14.5,7.2 C14.5,6.5 14.8,5.9 15.3,5.5 C15.8,5.1 16.6,4.9 17.4,4.9 C18.3,4.9 19.2,5.1 20,5.4 L19.7,6.3 C18.9,6 18.2,5.8 17.5,5.8 C16.9,5.8 16.5,5.9 16.2,6.2 C15.9,6.4 15.7,6.8 15.7,7.2 C15.7,7.5 15.8,7.8 15.9,8 C16,8.2 16.2,8.4 16.5,8.6 C16.8,8.8 17.2,9 17.8,9.2 C18.8,9.5 19.4,9.9 19.8,10.3 C20.2,10.7 20.3,11.1 20.3,11.7 Z M22,14.1 L22,5 L23.1,5 L23.1,13.1 L27.2,13.1 L27.2,14.1 L22,14.1 Z M34.4,14.1 L33.2,11.2 L29.5,11.2 L28.4,14.1 L27.3,14.1 L31,5 L31.9,5 L35.6,14.1 L34.4,14.1 Z M32.9,10.3 L31.8,7.5 C31.7,7.1 31.5,6.7 31.4,6.2 C31.3,6.6 31.2,7 31,7.5 L29.9,10.3 L32.9,10.3 Z M43.6,5 L43.6,10.9 C43.6,11.9 43.3,12.7 42.6,13.3 C41.9,13.9 41.1,14.2 40,14.2 C38.9,14.2 38,13.9 37.4,13.3 C36.8,12.7 36.5,11.9 36.5,10.9 L36.5,5 L37.6,5 L37.6,10.9 C37.6,11.7 37.8,12.2 38.2,12.6 C38.6,13 39.2,13.2 40.1,13.2 C40.9,13.2 41.5,13 41.9,12.6 C42.3,12.2 42.5,11.6 42.5,10.8 L42.5,4.9 L43.6,4.9 L43.6,5 Z M49.9,9.4 L53.1,9.4 L53.1,13.8 C52.6,14 52.1,14.1 51.6,14.1 C51.1,14.1 50.5,14.2 49.8,14.2 C48.4,14.2 47.3,13.8 46.5,13 C45.7,12.2 45.3,11 45.3,9.6 C45.3,8.7 45.5,7.8 45.9,7.1 C46.3,6.4 46.8,5.8 47.6,5.5 C48.3,5.1 49.2,4.9 50.2,4.9 C51.2,4.9 52.1,5.1 53,5.4 L52.6,6.3 C51.8,6 51,5.8 50.2,5.8 C49.1,5.8 48.2,6.1 47.5,6.8 C46.8,7.5 46.5,8.4 46.5,9.5 C46.5,10.7 46.8,11.7 47.4,12.3 C48,12.9 48.9,13.3 50.1,13.3 C50.7,13.3 51.4,13.2 52,13.1 L52,10.3 L49.9,10.3 L49.9,9.4 L49.9,9.4 Z M62.2,5 L62.2,10.9 C62.2,11.9 61.9,12.7 61.2,13.3 C60.6,13.9 59.7,14.2 58.6,14.2 C57.5,14.2 56.6,13.9 56,13.3 C55.4,12.7 55,11.9 55,10.9 L55,5 L56.1,5 L56.1,10.9 C56.1,11.7 56.3,12.2 56.7,12.6 C57.1,13 57.7,13.2 58.6,13.2 C59.4,13.2 60,13 60.4,12.6 C60.8,12.2 61,11.6 61,10.8 L61,4.9 L62.2,4.9 L62.2,5 Z M58.5,15.6 C58.5,16 58.7,16.2 59.1,16.2 C59.3,16.2 59.5,16.2 59.7,16.1 L59.7,16.8 C59.4,16.9 59.1,16.9 58.9,16.9 C58,16.9 57.6,16.5 57.6,15.7 C57.6,15.4 57.7,15.1 57.9,14.8 C58.1,14.5 58.3,14.3 58.6,14.1 L59.4,14.1 C59.1,14.4 58.9,14.6 58.7,14.8 C58.5,15.1 58.5,15.3 58.5,15.6 Z M73.5,7.7 C73.5,8.6 73.2,9.3 72.5,9.8 C71.9,10.3 70.9,10.5 69.7,10.5 L68.6,10.5 L68.6,14.1 L67.5,14.1 L67.5,5 L70,5 C72.3,5 73.5,5.9 73.5,7.7 Z M68.7,9.6 L69.7,9.6 C70.7,9.6 71.4,9.4 71.8,9.1 C72.2,8.8 72.4,8.3 72.4,7.6 C72.4,7 72.2,6.6 71.8,6.3 C71.4,6 70.8,5.9 69.9,5.9 L68.7,5.9 L68.7,9.6 L68.7,9.6 Z M83.3,9.6 C83.3,11.1 82.9,12.2 82.2,13 C81.4,13.8 80.4,14.2 79.1,14.2 C77.7,14.2 76.7,13.8 75.9,13 C75.1,12.2 74.8,11 74.8,9.5 C74.8,8 75.2,6.9 75.9,6.1 C76.6,5.3 77.7,4.9 79.1,4.9 C80.4,4.9 81.5,5.3 82.2,6.1 C82.9,7 83.3,8.1 83.3,9.6 Z M75.9,9.6 C75.9,10.8 76.2,11.8 76.7,12.4 C77.2,13 78,13.4 79,13.4 C80,13.4 80.8,13.1 81.3,12.4 C81.8,11.8 82.1,10.8 82.1,9.6 C82.1,8.4 81.8,7.5 81.3,6.8 C80.8,6.2 80,5.9 79,5.9 C78,5.9 77.2,6.2 76.6,6.9 C76,7.6 75.9,8.4 75.9,9.6 Z M86.3,10.4 L86.3,14.2 L85.2,14.2 L85.2,5.1 L87.8,5.1 C88.9,5.1 89.8,5.3 90.3,5.7 C90.8,6.1 91.1,6.8 91.1,7.6 C91.1,8.8 90.5,9.6 89.2,10 L91.7,14.1 L90.4,14.1 L88.1,10.3 L86.3,10.3 L86.3,10.4 Z M86.3,9.4 L87.8,9.4 C88.6,9.4 89.1,9.3 89.5,9 C89.9,8.7 90,8.3 90,7.7 C90,7.1 89.8,6.7 89.5,6.4 C89.2,6.1 88.6,6 87.8,6 L86.4,6 L86.4,9.4 L86.3,9.4 Z M95.9,14.1 L94.8,14.1 L94.8,6 L91.9,6 L91.9,5.1 L98.9,5.1 L98.9,6 L96,6 L96,14.1 L95.9,14.1 Z M105,14.1 L103.8,11.2 L100.1,11.2 L99,14.1 L97.9,14.1 L101.6,5 L102.5,5 L106.2,14.1 L105,14.1 Z M103.5,10.3 L102.4,7.5 C102.3,7.1 102.1,6.7 102,6.2 C101.9,6.6 101.8,7 101.6,7.5 L100.5,10.3 L103.5,10.3 Z M107.2,14.1 L107.2,5 L108.3,5 L108.3,13.1 L112.4,13.1 L112.4,14.1 L107.2,14.1 Z M119.6,14.1 L118.4,11.2 L114.7,11.2 L113.6,14.1 L112.5,14.1 L116.2,5 L117.1,5 L120.8,14.1 L119.6,14.1 Z M118.1,10.3 L117,7.5 C116.9,7.1 116.7,6.7 116.6,6.2 C116.5,6.6 116.4,7 116.2,7.5 L115.1,10.3 L118.1,10.3 Z M127,11.7 C127,12.5 126.7,13.1 126.1,13.6 C125.5,14 124.7,14.3 123.7,14.3 C122.6,14.3 121.7,14.2 121.2,13.9 L121.2,12.9 C121.6,13.1 122,13.2 122.4,13.3 C122.8,13.4 123.3,13.4 123.7,13.4 C124.4,13.4 125,13.3 125.3,13 C125.7,12.7 125.8,12.4 125.8,11.9 C125.8,11.6 125.7,11.3 125.6,11.1 C125.5,10.9 125.3,10.7 125,10.5 C124.7,10.3 124.2,10.1 123.6,9.9 C122.7,9.6 122.1,9.2 121.7,8.8 C121.3,8.4 121.1,7.8 121.1,7.2 C121.1,6.5 121.4,5.9 121.9,5.5 C122.4,5.1 123.2,4.9 124,4.9 C124.9,4.9 125.8,5.1 126.6,5.4 L126.3,6.3 C125.5,6 124.8,5.8 124.1,5.8 C123.5,5.8 123.1,5.9 122.8,6.2 C122.5,6.5 122.3,6.8 122.3,7.2 C122.3,7.5 122.4,7.8 122.5,8 C122.6,8.2 122.8,8.4 123.1,8.6 C123.4,8.8 123.8,9 124.4,9.2 C125.4,9.5 126,9.9 126.4,10.3 C126.8,10.7 127,11.1 127,11.7 Z"/><g transform="translate(139.2)"><g fill="#000" opacity=".3" transform="translate(0 1)"><polygon points="10.8 12.8 8.1 12.8 2.7 4 2.6 4.1 2.6 12.8 0 12.8 0 0 2.6 0 8 8.7 8.1 8.7 8.1 0 10.8 0"/><path d="M18.3,5.5 L17.3,5.5 C16.9,5.5 16.6,5.6 16.3,5.7 C16,5.9 15.8,6.1 15.7,6.4 L15.7,12.8 L13,12.8 L13,3.3 L15.5,3.3 L15.6,4.7 C15.8,4.2 16.1,3.8 16.5,3.5 C16.9,3.2 17.3,3.1 17.8,3.1 C17.9,3.1 18.1,3.1 18.2,3.1 C18.3,3.1 18.4,3.1 18.5,3.2 L18.3,5.5 Z"/><polygon points="21.3 12.8 18.6 12.8 18.6 10.5 21.3 10.5"/><polygon points="29.7 12.8 27 12.8 27 2.3 24.3 2.3 24.3 .5 29.7 0"/></g><g fill="#FFF"><polygon points="10.8 12.8 8.1 12.8 2.7 4 2.6 4.1 2.6 12.8 0 12.8 0 0 2.6 0 8 8.7 8.1 8.7 8.1 0 10.8 0"/><path d="M18.3,5.5 L17.3,5.5 C16.9,5.5 16.6,5.6 16.3,5.7 C16,5.9 15.8,6.1 15.7,6.4 L15.7,12.8 L13,12.8 L13,3.3 L15.5,3.3 L15.6,4.7 C15.8,4.2 16.1,3.8 16.5,3.5 C16.9,3.2 17.3,3.1 17.8,3.1 C17.9,3.1 18.1,3.1 18.2,3.1 C18.3,3.1 18.4,3.1 18.5,3.2 L18.3,5.5 Z"/><polygon points="21.3 12.8 18.6 12.8 18.6 10.5 21.3 10.5"/><polygon points="29.7 12.8 27 12.8 27 2.3 24.3 2.3 24.3 .5 29.7 0"/></g></g></g></g></svg>